<?xml version="1.0" encoding="UTF-8" standalone="no"?>
<!DOCTYPE svg PUBLIC "-//W3C//DTD SVG 1.1//EN"
 "http://www.w3.org/Graphics/SVG/1.1/DTD/svg11.dtd">
<!-- Generated by graphviz version 3.0.0 (20220226.1711)
 -->
<!-- Title: dependencies Pages: 1 -->
<svg width="196pt" height="174pt"
 viewBox="0.00 0.00 196.00 173.80" xmlns="http://www.w3.org/2000/svg" xmlns:xlink="http://www.w3.org/1999/xlink">
<g id="graph0" class="graph" transform="scale(1 1) rotate(0) translate(4 169.8)">
<title>dependencies</title>
<polygon fill="white" stroke="transparent" points="-4,4 -4,-169.8 192,-169.8 192,4 -4,4"/>
<text text-anchor="middle" x="94" y="-8.2" font-family="sans-serif" font-size="14.00">dependencies</text>
<g id="clust1" class="cluster">
<title>cluster_StudentModule</title>
<polygon fill="none" stroke="black" stroke-dasharray="1,5" points="8,-32.8 8,-157.8 180,-157.8 180,-32.8 8,-32.8"/>
</g>
<g id="clust6" class="cluster">
<title>cluster_StudentModule_providers</title>
<polygon fill="none" stroke="black" points="16,-40.8 16,-92.8 172,-92.8 172,-40.8 16,-40.8"/>
</g>
<!-- StudentService -->
<g id="node1" class="node">
<title>StudentService</title>
<ellipse fill="#fdb462" stroke="black" cx="94" cy="-66.8" rx="69.5" ry="18"/>
<text text-anchor="middle" x="94" y="-62.6" font-family="Times,serif" font-size="14.00">StudentService</text>
</g>
<!-- StudentModule -->
<g id="node2" class="node">
<title>StudentModule</title>
<polygon fill="#8dd3c7" stroke="black" points="145.33,-149.8 142.33,-153.8 121.33,-153.8 118.33,-149.8 42.67,-149.8 42.67,-113.8 145.33,-113.8 145.33,-149.8"/>
<text text-anchor="middle" x="94" y="-127.6" font-family="Times,serif" font-size="14.00">StudentModule</text>
</g>
<!-- StudentService&#45;&gt;StudentModule -->
<g id="edge1" class="edge">
<title>StudentService&#45;&gt;StudentModule</title>
<path fill="none" stroke="black" d="M94,-84.91C94,-84.91 94,-103.79 94,-103.79"/>
<polygon fill="black" stroke="black" points="90.5,-103.79 94,-113.79 97.5,-103.79 90.5,-103.79"/>
</g>
</g>
</svg>
