<?xml version="1.0" encoding="UTF-8" standalone="no"?>
<!DOCTYPE svg PUBLIC "-//W3C//DTD SVG 1.1//EN"
 "http://www.w3.org/Graphics/SVG/1.1/DTD/svg11.dtd">
<!-- Generated by graphviz version 3.0.0 (20220226.1711)
 -->
<!-- Title: dependencies Pages: 1 -->
<svg width="178pt" height="174pt"
 viewBox="0.00 0.00 178.00 173.80" xmlns="http://www.w3.org/2000/svg" xmlns:xlink="http://www.w3.org/1999/xlink">
<g id="graph0" class="graph" transform="scale(1 1) rotate(0) translate(4 169.8)">
<title>dependencies</title>
<polygon fill="white" stroke="transparent" points="-4,4 -4,-169.8 174,-169.8 174,4 -4,4"/>
<text text-anchor="middle" x="85" y="-8.2" font-family="sans-serif" font-size="14.00">dependencies</text>
<g id="clust1" class="cluster">
<title>cluster_ClassModule</title>
<polygon fill="none" stroke="black" stroke-dasharray="1,5" points="8,-32.8 8,-157.8 162,-157.8 162,-32.8 8,-32.8"/>
</g>
<g id="clust6" class="cluster">
<title>cluster_ClassModule_providers</title>
<polygon fill="none" stroke="black" points="16,-40.8 16,-92.8 154,-92.8 154,-40.8 16,-40.8"/>
</g>
<!-- ClassService -->
<g id="node1" class="node">
<title>ClassService</title>
<ellipse fill="#fdb462" stroke="black" cx="85" cy="-66.8" rx="60.84" ry="18"/>
<text text-anchor="middle" x="85" y="-62.6" font-family="Times,serif" font-size="14.00">ClassService</text>
</g>
<!-- ClassModule -->
<g id="node2" class="node">
<title>ClassModule</title>
<polygon fill="#8dd3c7" stroke="black" points="129.89,-149.8 126.89,-153.8 105.89,-153.8 102.89,-149.8 40.11,-149.8 40.11,-113.8 129.89,-113.8 129.89,-149.8"/>
<text text-anchor="middle" x="85" y="-127.6" font-family="Times,serif" font-size="14.00">ClassModule</text>
</g>
<!-- ClassService&#45;&gt;ClassModule -->
<g id="edge1" class="edge">
<title>ClassService&#45;&gt;ClassModule</title>
<path fill="none" stroke="black" d="M85,-84.91C85,-84.91 85,-103.79 85,-103.79"/>
<polygon fill="black" stroke="black" points="81.5,-103.79 85,-113.79 88.5,-103.79 81.5,-103.79"/>
</g>
</g>
</svg>
