<?xml version="1.0" encoding="UTF-8" standalone="no"?>
<!DOCTYPE svg PUBLIC "-//W3C//DTD SVG 1.1//EN"
 "http://www.w3.org/Graphics/SVG/1.1/DTD/svg11.dtd">
<!-- Generated by graphviz version 3.0.0 (20220226.1711)
 -->
<!-- Title: dependencies Pages: 1 -->
<svg width="772pt" height="174pt"
 viewBox="0.00 0.00 772.00 173.80" xmlns="http://www.w3.org/2000/svg" xmlns:xlink="http://www.w3.org/1999/xlink">
<g id="graph0" class="graph" transform="scale(1 1) rotate(0) translate(4 169.8)">
<title>dependencies</title>
<polygon fill="white" stroke="transparent" points="-4,4 -4,-169.8 768,-169.8 768,4 -4,4"/>
<text text-anchor="middle" x="382" y="-8.2" font-family="sans-serif" font-size="14.00">dependencies</text>
<g id="clust1" class="cluster">
<title>cluster_AppModule</title>
<polygon fill="none" stroke="black" stroke-dasharray="1,5" points="8,-32.8 8,-157.8 756,-157.8 756,-32.8 8,-32.8"/>
</g>
<g id="clust3" class="cluster">
<title>cluster_AppModule_imports</title>
<polygon fill="none" stroke="black" points="16,-40.8 16,-92.8 748,-92.8 748,-40.8 16,-40.8"/>
</g>
<!-- ClassModule -->
<g id="node1" class="node">
<title>ClassModule</title>
<polygon fill="#8dd3c7" stroke="black" points="739.89,-84.8 736.89,-88.8 715.89,-88.8 712.89,-84.8 650.11,-84.8 650.11,-48.8 739.89,-48.8 739.89,-84.8"/>
<text text-anchor="middle" x="695" y="-62.6" font-family="Times,serif" font-size="14.00">ClassModule</text>
</g>
<!-- AppModule -->
<g id="node7" class="node">
<title>AppModule</title>
<polygon fill="#8dd3c7" stroke="black" points="418.66,-149.8 415.66,-153.8 394.66,-153.8 391.66,-149.8 335.34,-149.8 335.34,-113.8 418.66,-113.8 418.66,-149.8"/>
<text text-anchor="middle" x="377" y="-127.6" font-family="Times,serif" font-size="14.00">AppModule</text>
</g>
<!-- ClassModule&#45;&gt;AppModule -->
<g id="edge1" class="edge">
<title>ClassModule&#45;&gt;AppModule</title>
<path fill="none" stroke="black" d="M695,-85.08C695,-106.12 695,-137.8 695,-137.8 695,-137.8 428.9,-137.8 428.9,-137.8"/>
<polygon fill="black" stroke="black" points="428.9,-134.3 418.9,-137.8 428.9,-141.3 428.9,-134.3"/>
</g>
<!-- DepartmentModule -->
<g id="node2" class="node">
<title>DepartmentModule</title>
<polygon fill="#8dd3c7" stroke="black" points="631.64,-84.8 628.64,-88.8 607.64,-88.8 604.64,-84.8 506.36,-84.8 506.36,-48.8 631.64,-48.8 631.64,-84.8"/>
<text text-anchor="middle" x="569" y="-62.6" font-family="Times,serif" font-size="14.00">DepartmentModule</text>
</g>
<!-- DepartmentModule&#45;&gt;AppModule -->
<g id="edge2" class="edge">
<title>DepartmentModule&#45;&gt;AppModule</title>
<path fill="none" stroke="black" d="M569,-84.82C569,-102.17 569,-125.8 569,-125.8 569,-125.8 429.14,-125.8 429.14,-125.8"/>
<polygon fill="black" stroke="black" points="429.14,-122.3 419.14,-125.8 429.14,-129.3 429.14,-122.3"/>
</g>
<!-- SectionModule -->
<g id="node3" class="node">
<title>SectionModule</title>
<polygon fill="#8dd3c7" stroke="black" points="487.55,-84.8 484.55,-88.8 463.55,-88.8 460.55,-84.8 386.45,-84.8 386.45,-48.8 487.55,-48.8 487.55,-84.8"/>
<text text-anchor="middle" x="437" y="-62.6" font-family="Times,serif" font-size="14.00">SectionModule</text>
</g>
<!-- SectionModule&#45;&gt;AppModule -->
<g id="edge3" class="edge">
<title>SectionModule&#45;&gt;AppModule</title>
<path fill="none" stroke="black" d="M402.53,-84.91C402.53,-84.91 402.53,-103.79 402.53,-103.79"/>
<polygon fill="black" stroke="black" points="399.03,-103.79 402.53,-113.79 406.03,-103.79 399.03,-103.79"/>
</g>
<!-- StudentModule -->
<g id="node4" class="node">
<title>StudentModule</title>
<polygon fill="#8dd3c7" stroke="black" points="368.33,-84.8 365.33,-88.8 344.33,-88.8 341.33,-84.8 265.67,-84.8 265.67,-48.8 368.33,-48.8 368.33,-84.8"/>
<text text-anchor="middle" x="317" y="-62.6" font-family="Times,serif" font-size="14.00">StudentModule</text>
</g>
<!-- StudentModule&#45;&gt;AppModule -->
<g id="edge4" class="edge">
<title>StudentModule&#45;&gt;AppModule</title>
<path fill="none" stroke="black" d="M351.67,-84.91C351.67,-84.91 351.67,-103.79 351.67,-103.79"/>
<polygon fill="black" stroke="black" points="348.17,-103.79 351.67,-113.79 355.17,-103.79 348.17,-103.79"/>
</g>
<!-- SubjectModule -->
<g id="node5" class="node">
<title>SubjectModule</title>
<polygon fill="#8dd3c7" stroke="black" points="247.55,-84.8 244.55,-88.8 223.55,-88.8 220.55,-84.8 146.45,-84.8 146.45,-48.8 247.55,-48.8 247.55,-84.8"/>
<text text-anchor="middle" x="197" y="-62.6" font-family="Times,serif" font-size="14.00">SubjectModule</text>
</g>
<!-- SubjectModule&#45;&gt;AppModule -->
<g id="edge5" class="edge">
<title>SubjectModule&#45;&gt;AppModule</title>
<path fill="none" stroke="black" d="M197,-84.82C197,-102.17 197,-125.8 197,-125.8 197,-125.8 325.25,-125.8 325.25,-125.8"/>
<polygon fill="black" stroke="black" points="325.25,-129.3 335.25,-125.8 325.25,-122.3 325.25,-129.3"/>
</g>
<!-- TeacherModule -->
<g id="node6" class="node">
<title>TeacherModule</title>
<polygon fill="#8dd3c7" stroke="black" points="128.12,-84.8 125.12,-88.8 104.12,-88.8 101.12,-84.8 23.88,-84.8 23.88,-48.8 128.12,-48.8 128.12,-84.8"/>
<text text-anchor="middle" x="76" y="-62.6" font-family="Times,serif" font-size="14.00">TeacherModule</text>
</g>
<!-- TeacherModule&#45;&gt;AppModule -->
<g id="edge6" class="edge">
<title>TeacherModule&#45;&gt;AppModule</title>
<path fill="none" stroke="black" d="M76,-85.08C76,-106.12 76,-137.8 76,-137.8 76,-137.8 325.15,-137.8 325.15,-137.8"/>
<polygon fill="black" stroke="black" points="325.15,-141.3 335.15,-137.8 325.15,-134.3 325.15,-141.3"/>
</g>
</g>
</svg>
