<?xml version="1.0" encoding="UTF-8" standalone="no"?>
<!DOCTYPE svg PUBLIC "-//W3C//DTD SVG 1.1//EN"
 "http://www.w3.org/Graphics/SVG/1.1/DTD/svg11.dtd">
<!-- Generated by graphviz version 3.0.0 (20220226.1711)
 -->
<!-- Title: dependencies Pages: 1 -->
<svg width="194pt" height="174pt"
 viewBox="0.00 0.00 194.00 173.80" xmlns="http://www.w3.org/2000/svg" xmlns:xlink="http://www.w3.org/1999/xlink">
<g id="graph0" class="graph" transform="scale(1 1) rotate(0) translate(4 169.8)">
<title>dependencies</title>
<polygon fill="white" stroke="transparent" points="-4,4 -4,-169.8 190,-169.8 190,4 -4,4"/>
<text text-anchor="middle" x="93" y="-8.2" font-family="sans-serif" font-size="14.00">dependencies</text>
<g id="clust1" class="cluster">
<title>cluster_SectionModule</title>
<polygon fill="none" stroke="black" stroke-dasharray="1,5" points="8,-32.8 8,-157.8 178,-157.8 178,-32.8 8,-32.8"/>
</g>
<g id="clust6" class="cluster">
<title>cluster_SectionModule_providers</title>
<polygon fill="none" stroke="black" points="16,-40.8 16,-92.8 170,-92.8 170,-40.8 16,-40.8"/>
</g>
<!-- SectionService -->
<g id="node1" class="node">
<title>SectionService</title>
<ellipse fill="#fdb462" stroke="black" cx="93" cy="-66.8" rx="68.92" ry="18"/>
<text text-anchor="middle" x="93" y="-62.6" font-family="Times,serif" font-size="14.00">SectionService</text>
</g>
<!-- SectionModule -->
<g id="node2" class="node">
<title>SectionModule</title>
<polygon fill="#8dd3c7" stroke="black" points="143.55,-149.8 140.55,-153.8 119.55,-153.8 116.55,-149.8 42.45,-149.8 42.45,-113.8 143.55,-113.8 143.55,-149.8"/>
<text text-anchor="middle" x="93" y="-127.6" font-family="Times,serif" font-size="14.00">SectionModule</text>
</g>
<!-- SectionService&#45;&gt;SectionModule -->
<g id="edge1" class="edge">
<title>SectionService&#45;&gt;SectionModule</title>
<path fill="none" stroke="black" d="M93,-84.91C93,-84.91 93,-103.79 93,-103.79"/>
<polygon fill="black" stroke="black" points="89.5,-103.79 93,-113.79 96.5,-103.79 89.5,-103.79"/>
</g>
</g>
</svg>
